<svg id="Capa_1" enable-background="new 0 0 511.999 511.999" height="512" viewBox="0 0 511.999 511.999" width="512" xmlns="http://www.w3.org/2000/svg"><g><path d="m422 459.448h15v15h-15z"/><path d="m497 459.448v-150h-52.5v-97.501c0-12.406-10.093-22.5-22.5-22.5h-52.5v-90.215l34.07-8.701v-52.98l-365.39 93.314v52.98l34.069-8.701v104.303h-57.249v180h-15v15h407v-15h-97.5v-105h135v-30h37.5v135h-30v15h59.999v-15h-14.999zm-285.247-335.411-158.573 40.497v-22.019l335.39-85.653v22.019l-162.285 41.445 3.712 14.533 124.503-31.796v86.384h-75v120h-105v-30h-87.25v-108.132l128.215-32.744zm97.747 215.411h-165v-15h165zm-279.5-45h129.5v15h-30v45h15v105h-15v-90h-84.501v90h-14.999zm84.5 120v15h-54.501v-15zm-54.501-15v-15h54.501v15zm54.501 45v15h-54.501v-15zm142.499 15h-60v-67.5h60zm37.501 0h-22.501v-82.5h-90v82.5h-22.5v-105h135v105zm135-120h-105v-30h-30v-105h127.5c4.135 0 7.5 3.364 7.5 7.5z"/><path d="m317 286.948h90v-60h-90zm15-45h60v30h-60z"/><path d="m257.003 189.449h-147.253v67.5h147.254v-67.5zm-132.253 15h51.127v37.5h-51.127zm117.253 37.499h-51.127v-37.5h51.127z"/><path d="m459.5 376.948h-127.5v60h127.5zm-112.5 15h41.25v30h-41.25zm97.5 30h-41.25v-30h41.25z"/><path d="m324.501 126.449h15v15h-15z"/><path d="m324.501 156.449h15v15h-15z"/></g></svg>